# This file uses centimeters as units for non-parametric coordinates.

v 3.000000 -4.000000 2.999405
v 3.000000 -0.000000 2.999405
v -3.000000 0.000000 2.999405
v -3.000000 -4.000000 2.999405
v -3.000000 -4.000000 -3.000298
v -3.000000 0.000000 -3.000298
v 3.000000 -4.000000 -3.000298
v 3.000000 -0.000000 -3.000298
v 3.000000 4.000000 2.999405
v -3.000000 4.000000 2.999405
v -3.000000 4.000000 -3.000298
v 3.000000 4.000000 -3.000298
v -1.860327 -4.000000 -2.999105
v -1.849356 0.001251 -3.000298
v -1.174026 0.982620 -3.000298
v 0.000000 1.500795 -3.000298
v 1.860327 -4.000000 -2.999105
v 1.849356 0.001251 -3.000298
v 1.174026 0.982620 -3.000298
v -1.849356 0.001251 2.999107
v 0.000000 1.500795 2.999107
v -1.174026 0.982620 2.999107
v -1.860327 -4.000000 3.000298
v 1.849356 0.001251 2.999107
v 1.174026 0.982620 2.999107
v 1.860327 -4.000000 3.000298
vt 0.449343 0.554214
vt 0.449343 0.841947
vt 0.885194 0.841947
vt 0.885194 0.554213
vt 0.885194 0.554213
vt 0.885194 0.841947
vt 0.449343 0.554213
vt 0.449343 0.841947
vt 0.885194 0.554214
vt 0.885194 0.841947
vt 0.449343 0.841947
vt 0.449343 0.554213
vt 0.449343 0.841947
vt 0.449343 0.554214
vt 0.885194 0.554214
vt 0.885194 0.841947
vt 0.444914 0.996727
vt 0.006472 0.996727
vt 0.006472 0.555379
vt 0.444914 0.555379
vt 0.885194 0.554213
vt 0.885194 0.841947
vt 0.449343 0.841947
vt 0.449343 0.554213
vt 0.885194 0.554213
vt 0.885194 0.841947
vt 0.449343 0.841947
vt 0.449343 0.554213
vt 0.802406 0.554214
vt 0.801609 0.842037
vt 0.801609 0.554304
vt 0.752552 0.624897
vt 0.667269 0.662171
vt 0.532131 0.554215
vt 0.532928 0.842036
vt 0.532929 0.554305
vt 0.581985 0.624897
vt 0.816466 0.625297
vt 0.816466 0.697350
vt 0.462041 0.697349
vt 0.462041 0.625300
vt 0.816466 0.769604
vt 0.462041 0.769602
vt 0.446591 0.555106
vt 0.853878 0.555105
vt 0.853965 0.842575
vt 0.446678 0.842574
vt 0.816466 0.625297
vt 0.462041 0.625300
vt 0.462041 0.697349
vt 0.816466 0.697350
vt 0.462041 0.769602
vt 0.816466 0.769604
vt 0.446591 0.555106
vt 0.446678 0.842574
vt 0.853965 0.842575
vt 0.853878 0.555105
vt 0.802406 0.554215
vt 0.801609 0.842036
vt 0.885194 0.841947
vt 0.885194 0.554213
vt 0.449343 0.841947
vt 0.532928 0.554304
vt 0.449343 0.554213
vt 0.449343 0.554213
vt 0.449343 0.841947
vt 0.532928 0.842037
vt 0.532131 0.554214
vt 0.885194 0.841947
vt 0.667269 0.662171
vt 0.752552 0.624897
vt 0.581985 0.624897
vt 0.801609 0.554305
vt 0.885194 0.554213
vn 1.000000 -0.000000 0.000000
vn 1.000000 -0.000000 0.000000
vn 1.000000 -0.000000 0.000000
vn 1.000000 -0.000000 0.000000
vn -1.000000 0.000000 -0.000000
vn -1.000000 0.000000 -0.000000
vn -1.000000 0.000000 -0.000000
vn -1.000000 0.000000 -0.000000
vn -0.000520 -0.000150 -1.000000
vn -0.000174 -0.000050 -1.000000
vn -0.000260 -0.000075 -1.000000
vn -0.000520 -0.000150 -1.000000
vn 1.000000 -0.000000 0.000000
vn 1.000000 -0.000000 0.000000
vn 0.000000 1.000000 0.000000
vn 0.000000 1.000000 0.000000
vn 0.000000 1.000000 0.000000
vn 0.000000 1.000000 0.000000
vn -1.000000 0.000000 -0.000000
vn -1.000000 0.000000 -0.000000
vn 0.000000 0.000000 -1.000000
vn 0.000174 -0.000050 -1.000000
vn 0.000260 -0.000075 -1.000000
vn 0.000520 -0.000150 -1.000000
vn 0.000520 -0.000150 -1.000000
vn 0.000000 0.000000 -1.000000
vn -0.000000 0.000000 -1.000000
vn -0.000000 0.000000 -1.000000
vn 0.000000 0.000000 -1.000000
vn 0.954525 -0.298132 0.000000
vn 0.637970 -0.770061 0.000000
vn 0.637970 -0.770061 0.000000
vn 0.954525 -0.298132 0.000000
vn -0.000000 -1.000000 -0.000000
vn -0.000000 -1.000000 -0.000000
vn 0.999996 -0.002742 0.000000
vn 0.999996 -0.002742 0.000000
vn -0.954525 -0.298132 -0.000000
vn -0.954525 -0.298132 -0.000000
vn -0.637970 -0.770061 -0.000000
vn -0.637970 -0.770061 -0.000000
vn -0.999996 -0.002742 -0.000000
vn -0.999996 -0.002742 -0.000000
vn 0.000260 0.000149 1.000000
vn 0.000260 0.000149 1.000000
vn 0.000001 0.000075 1.000000
vn -0.000025 0.000032 1.000000
vn 0.000092 -0.000062 1.000000
vn -0.000001 0.000075 1.000000
vn 0.000025 0.000032 1.000000
vn -0.000260 0.000149 1.000000
vn -0.000260 0.000149 1.000000
vn -0.000000 -0.000092 1.000000
vn -0.000092 -0.000062 1.000000
vn -0.000055 -0.000065 1.000000
vn 0.000055 -0.000065 1.000000
s 1
f 2/2/1 1/1/2 7/9/3 8/10/4
s 2
f 4/4/5 3/3/6 6/11/7 5/12/8
s 3
f 17/34/9 18/35/10 8/8/11 7/7/12
s 1
f 9/13/13 2/14/1 8/15/4 12/16/14
s off
f 10/17/15 9/18/16 12/19/17 11/20/18
s 2
f 3/21/6 10/22/19 11/23/20 6/24/7
s 3
f 11/26/21 14/31/22 6/25/23
f 5/5/24 6/6/23 14/30/22 13/29/25
f 11/26/21 12/27/26 16/33/27
f 16/33/27 12/27/26 19/37/28
f 11/26/21 16/33/27 15/32/29
f 19/37/28 12/27/26 18/36/10
f 11/26/21 15/32/29 14/31/22
f 18/36/10 12/27/26 8/28/11
s 6
f 14/38/30 15/39/31 22/40/32 20/41/33
f 15/39/31 16/42/34 21/43/35 22/40/32
f 23/44/36 13/45/37 14/46/30 20/47/33
f 18/48/38 24/49/39 25/50/40 19/51/41
f 19/51/41 25/50/40 21/52/35 16/53/34
f 26/54/42 24/55/39 18/56/38 17/57/43
s 8
f 26/58/44 1/61/45 2/60/46 24/59/47
f 10/62/48 3/64/49 20/63/50
f 4/65/51 23/68/52 20/67/50 3/66/49
f 10/62/48 21/70/53 9/69/54
f 21/70/53 25/71/55 9/69/54
f 10/62/48 22/72/56 21/70/53
f 25/71/55 24/73/47 9/69/54
f 10/62/48 20/63/50 22/72/56
f 24/73/47 2/74/46 9/69/54
